HIERARCHY
ROOT Hips
{
	OFFSET -3.958830 18.904000 13.208200
	CHANNELS 6 Xposition Yposition Zposition Zrotation Yrotation Xrotation 
	JOINT LHipJoint
	{
		OFFSET 0.000000 0.000000 0.000000
		CHANNELS 3 Zrotation Yrotation Xrotation
		JOINT LeftUpLeg
		{
			OFFSET 1.800000 -1.400000 0.085000
			CHANNELS 3 Zrotation Yrotation Xrotation
			JOINT LeftLeg
			{
				OFFSET 2.215000 -6.000000 0.000000
				CHANNELS 3 Zrotation Yrotation Xrotation
				JOINT LeftFoot
				{
					OFFSET 2.500000 -6.900000 0.000000
					CHANNELS 3 Zrotation Yrotation Xrotation
					JOINT LeftToeBase
					{
						OFFSET 0.200000 -0.500000 1.950000
						CHANNELS 3 Zrotation Yrotation Xrotation
						End Site
						{
							OFFSET 0.000000 0.000000 0.000000
						}
					}
				}
			}
		}
	}
	JOINT RHipJoint
	{
		OFFSET 0.000000 0.000000 0.000000
		CHANNELS 3 Zrotation Yrotation Xrotation
		JOINT RightUpLeg
		{
			OFFSET -1.800000 -1.400000 0.085000
			CHANNELS 3 Zrotation Yrotation Xrotation
			JOINT RightLeg
			{
				OFFSET -2.215000 -6.000000 0.000000
				CHANNELS 3 Zrotation Yrotation Xrotation
				JOINT RightFoot
				{
					OFFSET -2.500000 -6.900000 0.000000
					CHANNELS 3 Zrotation Yrotation Xrotation
					JOINT RightToeBase
					{
						OFFSET -0.200000 -0.500000 1.950000
						CHANNELS 3 Zrotation Yrotation Xrotation
						End Site
						{
							OFFSET 0.000000 0.000000 0.000000
						}
					}
				}
			}
		}
	}
	JOINT LowerBack
	{
		OFFSET 0.000000 0.000000 0.000000
		CHANNELS 3 Zrotation Yrotation Xrotation
		JOINT Spine
		{
			OFFSET -0.087000 1.940000 -0.288900
			CHANNELS 3 Zrotation Yrotation Xrotation
			JOINT Spine1
			{
				OFFSET 0.000000 1.950000 0.060000
				CHANNELS 3 Zrotation Yrotation Xrotation
				JOINT Neck
				{
					OFFSET 0.000000 0.000000 0.000000
					CHANNELS 3 Zrotation Yrotation Xrotation
					JOINT Neck1
					{
						OFFSET 0.000000 1.600000 0.340000
						CHANNELS 3 Zrotation Yrotation Xrotation
						JOINT Head
						{
							OFFSET 0.000000 1.667000 -0.240000
							CHANNELS 3 Zrotation Yrotation Xrotation
							End Site
							{
								OFFSET 0.000000 0.000000 0.000000
							}
						}
					}
				}
				JOINT LeftShoulder
				{
					OFFSET 0.000000 0.000000 0.000000
					CHANNELS 3 Zrotation Yrotation Xrotation
					JOINT LeftArm
					{
						OFFSET 2.700000 1.550000 -0.730000
						CHANNELS 3 Zrotation Yrotation Xrotation
						JOINT LeftForeArm
						{
							OFFSET 5.450000 0.000000 0.000000
							CHANNELS 3 Zrotation Yrotation Xrotation
							JOINT LeftHand
							{
								OFFSET 3.450000 0.000000 0.000000
								CHANNELS 3 Zrotation Yrotation Xrotation
								JOINT LeftHandIndex1
								{
									OFFSET 0.750000 0.000000 0.000000
									CHANNELS 3 Zrotation Yrotation Xrotation
									End Site
									{
										OFFSET 0.000000 0.000000 0.000000
									}
								}
							}
						}
					}
				}
				JOINT RightShoulder
				{
					OFFSET 0.000000 0.000000 0.000000
					CHANNELS 3 Zrotation Yrotation Xrotation
					JOINT RightArm
					{
						OFFSET -2.700000 1.550000 -0.730000
						CHANNELS 3 Zrotation Yrotation Xrotation
						JOINT RightForeArm
						{
							OFFSET -5.450000 0.000000 0.000000
							CHANNELS 3 Zrotation Yrotation Xrotation
							JOINT RightHand
							{
								OFFSET -3.450000 0.000000 0.000000
								CHANNELS 3 Zrotation Yrotation Xrotation
								JOINT RightHandIndex1
								{
									OFFSET -0.750000 0.000000 0.000000
									CHANNELS 3 Zrotation Yrotation Xrotation
									End Site
									{
										OFFSET 0.000000 0.000000 0.000000
									}
								}
							}
						}
					}
				}
			}
		}
	}
}
MOTION
Frames: 4
Frame Time: 0.016667
1.885850 17.331780 -1.535430 -4.022176 -14.055222 6.097166 -15.146472 13.079046 3.694991 -8.148445 -3.667064 -17.302327 -5.838044 4.701423 15.482648 -0.888914 3.827393 3.629914 0.610260 -0.058560 0.418980 18.243496 -10.710938 3.358856 1.546519 -1.865642 5.274188 5.538781 -5.646879 6.670428 -0.914815 -4.601910 3.144881 0.043040 0.441540 0.528870 -3.327889 -1.954440 -8.283568 11.063517 4.536499 12.630558 -2.323023 6.470628 -3.431516 3.586979 -3.003680 -11.132348 -8.426873 4.586575 41.924608 -5.360970 3.424440 -12.686390 -20.729985 -6.212795 2.747107 -0.252763 6.803228 0.634894 13.748280 -1.591211 -1.154312 -4.047126 2.564017 1.040790 0.235670 0.078580 0.473240 13.842942 11.491756 7.190875 0.150158 0.425708 -5.362967 -29.301102 8.969980 -1.782205 1.888684 -1.482928 -0.357370 0.351340 -0.057100 -0.378910 
1.900900 17.347230 -1.553640 -4.100169 -14.890971 6.226797 -15.125804 13.091596 3.684144 -7.711178 -3.587923 -17.531753 -6.208425 4.805810 15.360340 -0.862900 3.829520 3.636760 0.594030 -0.062100 0.411760 18.255944 -10.747043 3.353648 1.847753 -1.834559 4.723699 5.280735 -5.593107 7.147920 -0.889403 -4.539335 3.174155 0.037030 0.450750 0.513540 -3.358322 -1.895875 -8.272329 11.213972 4.606685 12.843666 -2.618828 6.640107 -3.482330 3.596901 -3.052799 -11.243470 -8.418884 4.701367 41.636781 -5.362910 3.652940 -12.299310 -20.664713 -6.225192 2.862136 -0.373717 7.213660 0.659146 13.349106 -1.459955 -1.109600 -4.047116 2.549484 1.019930 0.240870 0.074100 0.474000 13.729167 11.630274 7.253895 0.584397 0.592424 -5.422176 -29.626736 8.598570 -1.778056 1.910613 -1.482400 -0.358240 0.361630 -0.062980 -0.367980 
1.945320 17.378410 -1.588730 -4.361884 -16.296818 6.164422 -15.081662 13.163220 3.661525 -6.731959 -3.455329 -17.865876 -6.595001 4.985942 15.671575 -0.847233 3.880129 3.611178 0.603350 -0.052430 0.427670 18.275488 -10.811538 3.343971 2.244253 -1.742917 4.001241 4.848584 -5.588425 8.495784 -0.878773 -4.470073 3.192527 0.034350 0.432400 0.517120 -3.417552 -1.873692 -8.263262 11.916141 4.624532 13.730035 -3.362548 7.001411 -3.540410 3.671969 -3.027072 -11.312314 -8.361213 4.788090 41.544695 -5.505540 3.928620 -12.949410 -21.288468 -6.387857 2.896909 0.098886 8.062270 0.655047 13.572246 -2.378632 -1.137487 -4.014976 2.563515 1.029070 0.228030 0.092240 0.473050 14.072687 11.831627 7.344900 0.363252 0.310624 -5.412429 -29.259574 8.946326 -1.779974 1.916566 -1.471852 -0.349020 0.355150 -0.074400 -0.370500 
2.006290 17.412670 -1.627750 -4.646471 -17.274031 6.115324 -15.044603 13.273217 3.641297 -5.530024 -3.424181 -18.547790 -6.809101 5.301681 17.094396 -0.825934 4.061337 3.538065 0.595230 -0.077420 0.440580 18.282921 -10.854033 3.345305 2.786543 -1.637826 3.345383 4.123364 -5.525207 9.836174 -0.868166 -4.400962 3.207427 0.013230 0.429450 0.541210 -3.450441 -1.938462 -8.269644 12.783045 4.311974 14.824275 -4.324274 7.133102 -4.238029 3.982288 -2.949966 -11.347960 -8.165159 4.832925 41.533718 -6.312060 4.333850 -13.374370 -21.712885 -6.139871 2.719809 -0.342945 8.548536 0.468987 15.649109 -3.619640 -1.206438 -4.022957 2.573889 1.042910 0.229290 0.106340 0.466500 13.734582 11.663485 7.392828 1.125773 0.058479 -5.511926 -29.885063 9.301891 -1.848603 1.907771 -1.467860 -0.343520 0.348430 -0.064740 -0.378410 
